<?xml version="1.0" encoding="UTF-8"?>
<svg id="Calque_1" xmlns="http://www.w3.org/2000/svg" version="1.1" viewBox="0 0 335 335">
  <!-- Generator: Adobe Illustrator 29.7.1, SVG Export Plug-In . SVG Version: 2.1.1 Build 8)  -->
  <defs>
    <style>
      .st0 {
        fill: #6ec800;
      }
    </style>
  </defs>
  <g id="Ebene_1">
    <g>
      <path class="st0" d="M216.5,164v7.1h9.9v6.4h-19.8v-19.8h42.5v-22.7h-56.7c-4.7,0-8.5,3.8-8.5,8.5v48.2c0,4.7,3.8,8.5,8.5,8.5h48.2c4.7,0,8.5-3.8,8.5-8.5v-27.6h-32.6Z"/>
      <path class="st0" d="M313.8,134.9h-48.2c-4.7,0-8.5,3.8-8.5,8.5v48.2c0,4.7,3.8,8.5,8.5,8.5h48.2c4.7,0,8.5-3.8,8.5-8.5v-48.2c0-4.7-3.8-8.5-8.5-8.5M299.6,177.4h-19.8v-19.8h19.8v19.8Z"/>
      <path class="st0" d="M137.9,134.9l-46.9,72.3h-8.1l10.5,16.2,34.8-16.2h-10.2l12-18.4h23.4v11.3h22.7v-65.2h-38.2ZM137.3,177.4l16-24.6v24.6h-16Z"/>
      <polygon class="st0" points="39.4 200.1 59.1 169.8 59.1 200.1 86.3 200.1 133.3 127.8 140.6 127.8 130.1 111.6 95.3 127.8 106 127.8 81.8 165.1 81.8 134.9 54.7 134.9 35.1 165.1 35.1 134.9 12.5 134.9 12.5 200.1 39.4 200.1"/>
    </g>
  </g>
</svg>